<?xml version="1.0" encoding="UTF-8"?>
<svg id="Calque_2" data-name="Calque 2" xmlns="http://www.w3.org/2000/svg" viewBox="0 0 933.03 930.33">
  <defs>
    <style>
      .cls-1 {
        fill: #e52421;
      }

      .cls-2 {
        fill: #fcc00a;
      }
    </style>
  </defs>
  <g id="Calque_1-2" data-name="Calque 1">
    <g>
      <path class="cls-2" d="M637.58,220.37c-117.1-103.27-242.51-183.93-316.9-154.7-103.58,60.4-166.62,282.94-190.8,391.82-21.04,91.6-51.9,268.04-20.79,380.59-43.09-9.97-76.08-26.91-93.14-52.94-49.48-109.2,28.04-327.46,71.35-430.29C129.85,251.73,230.21,43.38,342.63,1.67c80.82-16.5,195.06,91.63,294.95,218.7Z"/>
      <path class="cls-1" d="M759.41,756.07c-98.41,41.18-466.39,124.69-650.32,82.01-31.11-112.55-.25-288.99,20.79-380.59,24.18-108.88,87.22-331.42,190.8-391.82,74.39-29.23,199.8,51.43,316.9,154.7,98.56,125.41,183.11,269.26,207.67,329.91,27.44,90.35-2.36,161.79-85.84,205.79Z"/>
      <path class="cls-1" d="M860.96,737.13c-110.89,70.97-615.32,276.13-727.38,156.52-10.63-15.65-18.65-34.47-24.49-55.57,183.93,42.68,551.91-40.83,650.32-82.01,83.48-44,113.28-115.44,85.84-205.79-24.56-60.65-109.11-204.5-207.67-329.91,123.02,108.51,236.86,242.01,272.55,299.31,42.59,84.26,25.53,159.78-49.17,217.45Z"/>
    </g>
  </g>
</svg>