<?xml version="1.0" encoding="UTF-8"?>
<svg id="Calque_2" data-name="Calque 2" xmlns="http://www.w3.org/2000/svg" viewBox="0 0 2644.38 930.33">
  <defs>
    <style>
      .cls-1 {
        fill: #fff;
      }
    </style>
  </defs>
  <g id="Calque_1-2" data-name="Calque 1">
    <g>
      <g>
        <path class="cls-1" d="M637.58,220.38c-117.1-103.27-242.51-183.93-316.9-154.7-103.58,60.4-166.62,282.93-190.8,391.82-21.04,91.6-51.9,268.04-20.79,380.59-43.09-9.97-76.08-26.91-93.14-52.94-49.49-109.2,28.04-327.46,71.34-430.3C129.85,251.74,230.21,43.38,342.63,1.67c80.82-16.5,195.06,91.63,294.94,218.71Z"/>
        <path class="cls-1" d="M860.96,737.13c-110.89,70.97-615.32,276.13-727.37,156.52-10.63-15.65-18.66-34.46-24.49-55.57,183.93,42.68,551.91-40.83,650.32-82.01,83.48-44,113.27-115.44,85.83-205.79-24.56-60.65-109.1-204.5-207.67-329.91,123.03,108.51,236.87,242.01,272.55,299.3,42.59,84.27,25.53,159.78-49.17,217.45Z"/>
      </g>
      <g>
        <g>
          <path class="cls-1" d="M1207.68,93.98c-18.7,0-33.02-4.02-42.97-12.06-9.96-8.04-14.93-19.48-14.93-34.32,0-15.66,4.97-27.52,14.93-35.55,9.95-8.04,24.28-12.06,42.97-12.06s33.62,4.02,43.58,12.06c9.95,8.04,14.93,19.89,14.93,35.55,0,14.84-4.98,26.28-14.93,34.32-9.96,8.04-24.49,12.06-43.58,12.06ZM1158.3,466.2V139.74h98.14v326.47h-98.14Z"/>
          <path class="cls-1" d="M1332.63,466.2V139.74h79.24l1.22,95.84h12.19c5.28-23.08,12.8-42.45,22.55-58.12,9.75-15.66,22.14-27.3,37.18-34.93,15.03-7.62,32.71-11.44,53.03-11.44,37.79,0,66.54,13.4,86.25,40.19,19.71,26.8,29.56,69.46,29.56,127.99v166.94h-98.75v-155.81c0-33.8-4.78-58.43-14.32-73.89-9.55-15.46-23.68-23.19-42.36-23.19-15.45,0-28.14,4.74-38.1,14.22-9.96,9.49-17.37,22.06-22.25,37.72-4.88,15.67-7.31,33.19-7.31,52.56v148.39h-98.14Z"/>
          <path class="cls-1" d="M1856.24,474.86c-21.54,0-41.05-1.96-58.52-5.87-17.48-3.91-32.72-9.59-45.72-17.01-13.01-7.42-23.68-16.38-32-26.9-8.33-10.51-14.12-22.15-17.37-34.93l73.15-32.77c2.84,7.01,7.82,14.12,14.93,21.33,7.11,7.22,16.66,13.09,28.65,17.62,11.98,4.54,26.52,6.8,43.58,6.8s28.95-2.37,38.1-7.11c9.14-4.73,13.72-11.64,13.72-20.71,0-6.59-2.54-11.84-7.62-15.77-5.09-3.91-12.71-7.42-22.86-10.51-10.16-3.09-22.76-6.08-37.79-8.97-15.45-3.29-31.09-7.11-46.94-11.44-15.85-4.33-30.69-10.3-44.5-17.93-13.82-7.62-24.9-17.72-33.22-30.3-8.33-12.57-12.5-28.54-12.5-47.92s5.28-37.81,15.85-52.87c10.56-15.04,26.31-26.9,47.24-35.55,20.92-8.66,46.42-12.99,76.5-12.99,26.82,0,50.38,3.51,70.71,10.51,20.32,7.01,37.28,17,50.9,29.99,13.61,12.99,23.06,28.55,28.34,46.68l-78.63,28.44c-2.04-9.06-6.2-16.9-12.5-23.5-6.31-6.59-14.23-11.64-23.77-15.15-9.55-3.5-20.83-5.26-33.83-5.26-15.85,0-28.14,2.47-36.88,7.42-8.74,4.95-13.11,11.54-13.11,19.79,0,6.6,2.94,12.06,8.84,16.38,5.89,4.33,14.32,7.94,25.3,10.82,10.97,2.89,23.97,5.98,39.01,9.27,15.85,3.3,31.59,7.11,47.24,11.44,15.64,4.33,29.87,10.1,42.67,17.31,12.8,7.22,22.95,16.69,30.48,28.44,7.51,11.75,11.28,26.9,11.28,45.44,0,21.85-5.7,40.71-17.07,56.58-11.38,15.87-28.14,28.04-50.29,36.48-22.15,8.44-49.28,12.68-81.38,12.68Z"/>
          <path class="cls-1" d="M2083.6,466.2v-202.19h-49.37v-72.34l87.78,3.71v-11.75c-15.45-2.88-28.14-8.13-38.1-15.77-9.96-7.62-17.17-16.59-21.64-26.9-4.48-10.3-6.71-21.43-6.71-33.39,0-18.13,4.67-33.7,14.02-46.68,9.34-12.98,22.55-22.97,39.62-29.99,17.07-7.01,36.97-10.51,59.74-10.51,19.91,0,37.99,2.38,54.25,7.11,16.25,4.74,29.26,10.62,39.01,17.62l-5.49,89.65c-10.16-7-21.64-12.77-34.44-17.31-12.8-4.53-24.69-6.8-35.66-6.8s-20.93,3-28.65,8.97c-7.72,5.98-11.58,15.77-11.58,29.37,0,10.72,2.33,18.76,7.01,24.11,4.67,5.36,10.46,8.97,17.37,10.82,6.91,1.85,13.81,2.78,20.72,2.78h70.71v77.29h-82.9v202.19h-95.7Z"/>
          <path class="cls-1" d="M2307.91,570.7V139.74h80.46l1.22,92.75,10.97,1.24c3.66-23.08,10.15-42.25,19.51-57.5,9.34-15.25,21.43-26.59,36.27-34.01,14.83-7.42,31.79-11.13,50.9-11.13,28.44,0,52.93,7.01,73.45,21.02,20.52,14.02,36.27,34.01,47.24,59.98,10.97,25.97,16.46,57.1,16.46,93.36,0,32.15-4.78,61.01-14.32,86.56-9.55,25.56-23.98,45.76-43.28,60.59-19.31,14.84-43.79,22.26-73.45,22.26-19.92,0-36.78-3.61-50.59-10.82-13.82-7.21-25.51-17.82-35.05-31.84-9.55-14.01-17.58-31.53-24.08-52.56h-11.58c2.44,11.13,4.67,22.47,6.71,34.01,2.03,11.55,3.75,22.67,5.18,33.39,1.42,10.72,2.13,21.02,2.13,30.92v92.74h-98.14ZM2477.36,396.33c13.41,0,24.89-3.71,34.44-11.13,9.54-7.42,16.96-17.93,22.25-31.53,5.28-13.6,7.92-29.47,7.92-47.61,0-19.37-2.74-35.96-8.23-49.77-5.49-13.81-13.31-24.52-23.47-32.15-10.16-7.62-21.94-11.44-35.35-11.44-12.6,0-23.27,2.78-32,8.35-8.74,5.56-15.85,12.78-21.33,21.64-5.49,8.87-9.45,18.24-11.89,28.13-2.44,9.89-3.66,19.17-3.66,27.82v13.6c0,7.84,1.01,15.67,3.05,23.5,2.03,7.84,5.08,15.36,9.14,22.57,4.06,7.22,8.93,13.71,14.63,19.48,5.69,5.78,12.29,10.31,19.81,13.6,7.51,3.3,15.74,4.95,24.69,4.95Z"/>
        </g>
        <g>
          <path class="cls-1" d="M1186.15,666.69l-36.38,105.89h18.66l7.33-22.94h45.92l7.33,22.94h18.66l-36.38-105.89h-25.15ZM1179.76,737.12l17.93-56.15h2.06l17.93,56.15h-37.93Z"/>
          <path class="cls-1" d="M1314.73,727.49c-.32,4.71-1.03,9.04-2.14,13-1.11,3.96-2.59,7.38-4.43,10.27-1.85,2.88-4.03,5.13-6.56,6.74-2.53,1.6-5.38,2.4-8.54,2.4-5.59,0-9.73-2.17-12.42-6.5-2.69-4.33-4.03-10.88-4.03-19.65v-44.6h-17.24v46.37c0,13.05,2.4,22.84,7.2,29.36,4.8,6.52,11.84,9.79,21.12,9.79,4.85,0,9.09-.99,12.73-2.97,3.64-1.98,6.69-5.11,9.17-9.39,2.48-4.28,4.4-9.68,5.77-16.21h2.85l-.95,26.47h14.55v-83.43h-17.08v38.34Z"/>
          <path class="cls-1" d="M1412.16,685.3c0,2.46.18,5.24.55,8.34.37,3.1.79,6.37,1.26,9.79.47,3.42.97,6.74,1.5,9.95h-3.16c-1.16-4.92-2.87-9.33-5.14-13.24-2.27-3.9-5.25-7.03-8.94-9.38-3.69-2.35-8.38-3.53-14.08-3.53-7.06,0-13.05,1.9-17.95,5.69-4.9,3.8-8.62,8.99-11.15,15.56-2.53,6.58-3.8,14.04-3.8,22.38,0,8.77,1.34,16.45,4.03,23.02,2.69,6.58,6.51,11.68,11.47,15.32,4.95,3.63,10.97,5.45,18.03,5.45,5.16,0,9.57-1.02,13.21-3.05,3.64-2.03,6.62-4.92,8.94-8.66,2.32-3.74,4.11-8.24,5.38-13.48h2.85l-.63,23.1h14.87v-41.07l.16-72.04h-17.4v25.83ZM1412.32,732.31c0,2.89-.5,5.97-1.5,9.22-1,3.27-2.43,6.26-4.27,8.98-1.85,2.73-4.22,4.97-7.12,6.74-2.9,1.76-6.25,2.65-10.04,2.65-4.22,0-7.86-1.17-10.91-3.53-3.06-2.35-5.38-5.69-6.96-10.02-1.58-4.33-2.37-9.39-2.37-15.16s.76-10.83,2.29-15.16c1.53-4.33,3.82-7.78,6.88-10.35,3.06-2.57,6.8-3.85,11.23-3.85,3.06,0,5.83.61,8.3,1.84,2.48,1.23,4.64,2.92,6.48,5.06,1.84,2.14,3.34,4.44,4.51,6.9,1.16,2.46,2.03,4.95,2.61,7.46.58,2.51.87,4.84.87,6.98v2.24Z"/>
          <rect class="cls-1" x="1452.97" y="689.15" width="17.24" height="83.43"/>
          <path class="cls-1" d="M1461.67,656.9c-3.69,0-6.48.8-8.38,2.4-1.9,1.61-2.85,3.91-2.85,6.9s.95,5.14,2.85,6.74c1.9,1.61,4.69,2.41,8.38,2.41s6.51-.78,8.46-2.33c1.95-1.55,2.93-3.83,2.93-6.82s-.98-5.43-2.93-6.98c-1.95-1.55-4.77-2.33-8.46-2.33Z"/>
          <path class="cls-1" d="M1550.71,692.12c-6.12-3.37-13.08-5.05-20.88-5.05s-14.42,1.63-20.48,4.89c-6.06,3.27-10.86,8.1-14.39,14.52-3.53,6.42-5.3,14.49-5.3,24.23s1.69,17.38,5.06,23.9c3.37,6.52,8.12,11.5,14.23,14.92,6.11,3.42,13.13,5.14,21.04,5.14s14.44-1.6,20.56-4.81c6.11-3.21,10.97-8.02,14.55-14.44,3.58-6.42,5.38-14.49,5.38-24.23s-1.77-17.7-5.3-24.23c-3.53-6.52-8.36-11.47-14.47-14.84ZM1550.55,747.55c-1.79,4.39-4.35,7.73-7.67,10.03-3.32,2.3-7.41,3.45-12.26,3.45-7.38,0-13.18-2.7-17.4-8.1-4.22-5.4-6.33-12.92-6.33-22.54,0-6.31.89-11.63,2.69-15.96,1.79-4.33,4.4-7.62,7.83-9.87,3.42-2.25,7.41-3.37,11.94-3.37,5.17,0,9.49,1.23,12.97,3.69,3.48,2.46,6.17,5.99,8.07,10.59,1.9,4.6,2.85,10.11,2.85,16.52,0,5.99-.9,11.18-2.69,15.56Z"/>
          <polygon class="cls-1" points="1660 689.31 1641.49 689.31 1620.62 758.46 1618.4 758.46 1597.68 689.31 1578.86 689.31 1607.49 772.58 1631.21 772.58 1660 689.31"/>
          <rect class="cls-1" x="1674.23" y="689.15" width="17.24" height="83.43"/>
          <path class="cls-1" d="M1682.93,675.35c3.69,0,6.51-.78,8.46-2.33,1.95-1.55,2.93-3.83,2.93-6.82s-.98-5.43-2.93-6.98c-1.95-1.55-4.77-2.33-8.46-2.33s-6.48.8-8.38,2.4c-1.9,1.61-2.85,3.91-2.85,6.9s.95,5.14,2.85,6.74c1.9,1.61,4.69,2.41,8.38,2.41Z"/>
          <path class="cls-1" d="M1746.51,774.66c7.27,0,13.57-.96,18.9-2.89,5.32-1.92,9.38-4.79,12.18-8.58,2.79-3.79,4.19-8.48,4.19-14.04,0-4.49-.9-8.18-2.69-11.07-1.79-2.89-4.27-5.19-7.43-6.9-3.16-1.71-6.7-3.13-10.6-4.25-3.9-1.12-7.91-2.06-12.02-2.81-4.11-.96-7.78-1.9-10.99-2.81-3.22-.91-5.75-2.14-7.59-3.69-1.85-1.55-2.77-3.61-2.77-6.17,0-3.42,1.5-6.1,4.51-8.02,3-1.92,7.14-2.89,12.41-2.89,4.01,0,7.51.59,10.52,1.77,3,1.18,5.38,2.86,7.12,5.05,1.74,2.19,2.71,5.05,2.93,8.58l14.23-4.49c-.63-4.92-2.4-9.23-5.3-12.92-2.9-3.69-6.78-6.52-11.62-8.5-4.85-1.98-10.7-2.97-17.56-2.97s-12.97,1.07-18.03,3.21c-5.06,2.14-8.88,5.05-11.47,8.74-2.59,3.69-3.88,8-3.88,12.92,0,4.49.95,8.24,2.85,11.23,1.9,2.99,4.51,5.4,7.83,7.22,3.32,1.82,6.9,3.29,10.75,4.41,3.85,1.12,7.67,2.06,11.47,2.81,4.32.86,8.09,1.76,11.31,2.73,3.22.96,5.7,2.19,7.43,3.69,1.74,1.5,2.61,3.58,2.61,6.26,0,3.43-1.58,6.1-4.74,8.02-3.16,1.92-7.65,2.89-13.44,2.89-4.96,0-9.2-.7-12.73-2.09-3.53-1.39-6.25-3.29-8.15-5.7-1.9-2.4-2.9-5.16-3.01-8.26l-13.6,4.65c.21,3.75,1.19,7.14,2.93,10.19,1.74,3.05,4.14,5.67,7.2,7.86,3.06,2.2,6.77,3.88,11.15,5.06,4.37,1.17,9.41,1.76,15.11,1.76Z"/>
          <path class="cls-1" d="M1839.74,771.69c3.64-1.98,6.69-5.11,9.17-9.39,2.48-4.28,4.4-9.68,5.77-16.21h2.85l-.95,26.47h14.55v-83.43h-17.08v38.34c-.32,4.71-1.03,9.04-2.14,13-1.11,3.96-2.59,7.38-4.43,10.27-1.85,2.88-4.03,5.13-6.56,6.74-2.53,1.6-5.38,2.4-8.54,2.4-5.59,0-9.73-2.17-12.41-6.5-2.69-4.33-4.03-10.88-4.03-19.65v-44.6h-17.24v46.37c0,13.05,2.4,22.84,7.2,29.36,4.8,6.52,11.83,9.79,21.11,9.79,4.85,0,9.09-.99,12.73-2.97Z"/>
          <path class="cls-1" d="M1951.8,746.1c-.63,2.03-1.45,3.96-2.45,5.78-1,1.82-2.32,3.42-3.95,4.81-1.64,1.39-3.61,2.49-5.93,3.29-2.32.8-5.11,1.2-8.38,1.2-7.81,0-13.79-2.43-17.95-7.3-3.84-4.49-5.89-11.08-6.19-19.71l58.78-.59c.32-7.81-.32-14.63-1.9-20.46-1.58-5.83-3.93-10.67-7.04-14.52-3.11-3.85-6.96-6.74-11.55-8.66-4.59-1.92-9.78-2.89-15.58-2.89-6.12,0-11.65,1.12-16.61,3.37-4.96,2.25-9.1,5.38-12.42,9.39-3.32,4.01-5.85,8.8-7.59,14.36-1.74,5.56-2.61,11.61-2.61,18.13s.87,12.54,2.61,17.73c1.74,5.19,4.35,9.63,7.83,13.32,3.48,3.69,7.75,6.5,12.81,8.42,5.06,1.92,10.86,2.89,17.4,2.89,5.16,0,9.73-.56,13.68-1.68,3.96-1.12,7.44-2.78,10.44-4.97,3.01-2.19,5.43-4.84,7.27-7.94,1.84-3.1,3.29-6.63,4.35-10.59l-15.03-3.37ZM1917.72,704.79c3.42-2.41,7.41-3.61,11.94-3.61,4.22,0,7.91,1.04,11.07,3.13,3.16,2.09,5.59,5.21,7.28,9.39,1.06,2.63,1.61,5.73,1.75,9.21l-42.21.5c.47-2.91,1.19-5.6,2.18-8.03,1.9-4.65,4.56-8.18,7.99-10.59Z"/>
          <rect class="cls-1" x="1984.86" y="659.47" width="17.08" height="113.11"/>
          <polygon class="cls-1" points="2082.76 725.57 2133.68 725.57 2133.68 711.93 2082.76 711.93 2082.76 681.29 2140.96 681.29 2140.96 666.69 2082.76 666.69 2075.64 666.69 2065.52 666.69 2065.52 772.58 2075.64 772.58 2082.76 772.58 2141.27 772.58 2141.27 757.98 2082.76 757.98 2082.76 725.57"/>
          <path class="cls-1" d="M2218.14,767.12c3.06-2.46,5.53-5.45,7.43-8.98,1.9-3.53,3.16-7.54,3.8-12.03l-15.34-3.53c-.42,3.53-1.45,6.66-3.08,9.39-1.64,2.73-3.9,4.92-6.8,6.58-2.9,1.66-6.51,2.49-10.83,2.49-5.27,0-9.65-1.23-13.13-3.69-3.48-2.46-6.06-5.88-7.75-10.27-1.69-4.38-2.53-9.63-2.53-15.72,0-4.38.48-8.43,1.42-12.11.95-3.69,2.35-6.87,4.19-9.55,1.84-2.67,4.11-4.76,6.8-6.26,2.69-1.5,5.83-2.25,9.41-2.25,4.01,0,7.38.8,10.12,2.41,2.74,1.61,4.85,3.72,6.33,6.34,1.47,2.62,2.37,5.54,2.69,8.74l16.13-4.97c-.95-5.34-2.95-10.03-6.01-14.04-3.06-4.01-7.01-7.11-11.86-9.3-4.85-2.19-10.44-3.29-16.77-3.29s-12.28,1.12-17.24,3.37c-4.96,2.25-9.09,5.43-12.41,9.55-3.32,4.12-5.83,8.85-7.51,14.2-1.69,5.35-2.53,11.23-2.53,17.65,0,5.88.82,11.42,2.45,16.6,1.63,5.19,4.06,9.76,7.28,13.72,3.21,3.96,7.35,7.04,12.41,9.22,5.06,2.19,11.18,3.29,18.35,3.29,5.27,0,9.99-.64,14.16-1.92,4.16-1.28,7.77-3.15,10.84-5.62Z"/>
          <path class="cls-1" d="M2290.42,687.06c-5.27,0-9.7,1.04-13.29,3.13-3.58,2.09-6.56,5.19-8.94,9.3-2.37,4.12-4.35,9.17-5.93,15.16h-3.01c.42-2.46.79-4.95,1.11-7.46.32-2.51.63-5,.95-7.46.32-2.46.53-4.87.63-7.22.1-2.35.16-4.71.16-7.06v-25.99h-17.4v113.11h17.24v-38.98c.53-5.99,1.69-11.34,3.48-16.04,1.79-4.71,4.24-8.48,7.35-11.31,3.11-2.83,6.98-4.25,11.63-4.25,5.69,0,9.94,2.22,12.73,6.66,2.79,4.44,4.19,11.42,4.19,20.94v43h17.24v-45.4c0-13.26-2.35-23.26-7.04-30-4.69-6.74-11.73-10.11-21.11-10.11Z"/>
          <path class="cls-1" d="M2383.89,722.28c-2.32.48-5.38,1.04-9.17,1.68-6.64.86-12.36,1.98-17.16,3.37-4.8,1.39-8.78,3.1-11.94,5.13-3.16,2.03-5.51,4.57-7.04,7.62-1.53,3.05-2.29,6.71-2.29,10.99,0,5.14,1.05,9.44,3.16,12.92,2.11,3.48,4.93,6.12,8.46,7.94,3.53,1.82,7.62,2.73,12.26,2.73,5.27,0,9.86-1.02,13.76-3.05,3.9-2.03,7.2-4.78,9.89-8.26,2.69-3.48,4.82-7.19,6.41-11.15h2.22c.21,3.42.45,6.87.71,10.35.26,3.48.55,6.82.87,10.03h15.66c-.42-3.64-.79-7.38-1.11-11.23-.32-3.85-.53-7.75-.63-11.71-.11-3.96-.21-7.7-.32-11.23v-17.01c0-7.91-1.16-14.41-3.48-19.49-2.32-5.08-5.88-8.82-10.68-11.23-4.8-2.4-10.83-3.61-18.11-3.61-4.85,0-9.39.56-13.6,1.68-4.22,1.12-7.88,2.81-10.99,5.05-3.11,2.25-5.69,4.92-7.75,8.02-2.06,3.1-3.61,6.63-4.67,10.59l15.5,5.14c.74-4.06,2.21-7.3,4.43-9.71,2.22-2.4,4.77-4.14,7.67-5.21,2.9-1.07,5.88-1.6,8.94-1.6,5.48,0,9.49,1.31,12.02,3.93,2.53,2.62,3.8,5.75,3.8,9.38,0,2.36-.55,4.15-1.66,5.38-1.11,1.23-2.82,2.09-5.14,2.57ZM2391.01,730.08v11.69c-1.37,3.31-3.06,6.23-5.06,8.74-2,2.51-4.11,4.55-6.33,6.1-2.22,1.55-4.48,2.73-6.8,3.53-2.32.8-4.53,1.2-6.64,1.2-3.9,0-7.06-1.07-9.49-3.21-2.43-2.14-3.64-5.19-3.64-9.15,0-3.21.76-5.75,2.29-7.62,1.53-1.87,3.58-3.31,6.17-4.33,2.58-1.02,5.43-1.79,8.54-2.33,3.11-.53,6.25-1.07,9.41-1.61,3.16-.53,6.11-1.2,8.86-2,.97-.28,1.85-.64,2.69-1.02Z"/>
          <path class="cls-1" d="M2476.26,687.06c-5.27,0-9.7,1.04-13.29,3.13-3.58,2.09-6.56,5.19-8.94,9.3-2.37,4.12-4.35,9.17-5.93,15.16h-3c.42-2.46.79-4.95,1.11-7.46.32-2.51.63-5,.95-7.46.32-2.46.53-4.87.63-7.22.1-2.35.16-4.71.16-7.06v-25.99h-17.4v113.11h17.24v-38.98c.53-5.99,1.69-11.34,3.48-16.04,1.79-4.71,4.24-8.48,7.35-11.31,3.11-2.83,6.98-4.25,11.63-4.25,5.69,0,9.94,2.22,12.73,6.66,2.79,4.44,4.19,11.42,4.19,20.94v43h17.24v-45.4c0-13.26-2.35-23.26-7.04-30-4.69-6.74-11.73-10.11-21.12-10.11Z"/>
          <path class="cls-1" d="M2535.41,675.35c3.69,0,6.51-.78,8.46-2.33,1.95-1.55,2.93-3.83,2.93-6.82s-.98-5.43-2.93-6.98c-1.95-1.55-4.77-2.33-8.46-2.33s-6.48.8-8.38,2.4c-1.9,1.61-2.85,3.91-2.85,6.9s.95,5.14,2.85,6.74c1.9,1.61,4.69,2.41,8.38,2.41Z"/>
          <rect class="cls-1" x="2526.71" y="689.15" width="17.24" height="83.43"/>
          <path class="cls-1" d="M2627.46,749.47l-.63,23.1h14.87v-41.07l.16-72.04h-17.4v25.83c0,2.46.18,5.24.55,8.34.37,3.1.79,6.37,1.26,9.79.47,3.42.97,6.74,1.5,9.95h-3.16c-1.16-4.92-2.87-9.33-5.14-13.24-2.27-3.9-5.25-7.03-8.94-9.38-3.69-2.35-8.38-3.53-14.08-3.53-7.06,0-13.05,1.9-17.95,5.69-4.9,3.8-8.62,8.99-11.15,15.56-2.53,6.58-3.8,14.04-3.8,22.38,0,8.77,1.34,16.45,4.03,23.02,2.69,6.58,6.51,11.68,11.47,15.32,4.95,3.63,10.97,5.45,18.03,5.45,5.16,0,9.57-1.02,13.21-3.05,3.64-2.03,6.62-4.92,8.94-8.66,2.32-3.74,4.11-8.24,5.38-13.48h2.85ZM2618.84,750.51c-1.85,2.73-4.22,4.97-7.12,6.74-2.9,1.76-6.25,2.65-10.04,2.65-4.22,0-7.86-1.17-10.91-3.53-3.06-2.35-5.38-5.69-6.96-10.02-1.58-4.33-2.37-9.39-2.37-15.16s.76-10.83,2.29-15.16c1.53-4.33,3.82-7.78,6.88-10.35,3.06-2.57,6.8-3.85,11.23-3.85,3.06,0,5.83.61,8.3,1.84,2.48,1.23,4.64,2.92,6.48,5.06,1.84,2.14,3.35,4.44,4.51,6.9,1.16,2.46,2.03,4.95,2.61,7.46.58,2.51.87,4.84.87,6.98v2.24c0,2.89-.5,5.97-1.5,9.22-1,3.27-2.43,6.26-4.27,8.98Z"/>
          <path class="cls-1" d="M1651.61,822.36l-36.38,105.89h18.66l7.33-22.94h45.92l7.33,22.94h18.66l-36.38-105.89h-25.15ZM1645.23,892.79l17.93-56.15h2.06l17.93,56.15h-37.93Z"/>
          <path class="cls-1" d="M1774.35,842.73c-5.27,0-9.7,1.04-13.29,3.13-3.58,2.09-6.56,5.19-8.94,9.3-2.37,4.12-4.35,9.17-5.93,15.16h-3.01c.42-2.46.79-4.95,1.11-7.46.32-2.51.63-5,.95-7.46.32-2.46.53-4.87.63-7.22.1-2.35.16-4.71.16-7.06v-25.99h-17.4v113.1h17.24v-38.98c.53-5.99,1.69-11.34,3.48-16.04,1.79-4.71,4.24-8.48,7.35-11.31,3.11-2.83,6.98-4.25,11.63-4.25,5.69,0,9.94,2.22,12.73,6.66,2.79,4.44,4.19,11.42,4.19,20.94v43h17.24v-45.4c0-13.26-2.35-23.26-7.04-30-4.69-6.74-11.73-10.11-21.11-10.11Z"/>
          <path class="cls-1" d="M1940.1,853.24c-2.21-3.48-4.98-6.1-8.3-7.86-3.32-1.77-7.14-2.65-11.47-2.65-4.53,0-8.62,1.04-12.26,3.13-3.64,2.09-6.7,5.19-9.17,9.3-2.48,4.12-4.4,9.17-5.77,15.16h-2.53c-.21-5.03-1.16-9.65-2.85-13.88-1.69-4.23-4.19-7.57-7.51-10.03-3.32-2.46-7.57-3.69-12.73-3.69-4.54,0-8.52,1.04-11.94,3.13-3.43,2.09-6.3,5.21-8.62,9.39-2.32,4.17-4.22,9.3-5.69,15.4h-2.53l.79-25.83h-14.71l.16,31.12v52.3h16.92v-39.15c.42-5.67,1.5-10.88,3.24-15.64,1.74-4.76,4.03-8.5,6.88-11.23,2.85-2.73,6.27-4.09,10.28-4.09,3.37,0,6.19,1.07,8.46,3.21,2.27,2.14,3.96,5.29,5.06,9.46,1.11,4.17,1.66,9.57,1.66,16.2v41.23h16.76v-39.47c.53-5.88,1.66-11.15,3.4-15.8,1.74-4.65,4.09-8.29,7.04-10.91,2.95-2.62,6.33-3.93,10.12-3.93,3.27,0,6.01,1.02,8.22,3.05,2.21,2.03,3.85,5.05,4.9,9.07,1.05,4.01,1.58,9.17,1.58,15.48v42.51h17.24v-44.6c0-6.74-.55-12.62-1.66-17.65-1.11-5.03-2.77-9.28-4.98-12.75Z"/>
          <path class="cls-1" d="M2023.69,907.55c-1,1.82-2.32,3.42-3.95,4.81-1.64,1.39-3.61,2.49-5.93,3.29-2.32.8-5.11,1.2-8.38,1.2-7.81,0-13.79-2.43-17.95-7.3-3.84-4.49-5.89-11.08-6.19-19.71l58.78-.59c.32-7.81-.32-14.63-1.9-20.46-1.58-5.83-3.93-10.67-7.04-14.52-3.11-3.85-6.96-6.74-11.55-8.66-4.59-1.92-9.78-2.89-15.58-2.89-6.12,0-11.65,1.12-16.61,3.37-4.96,2.25-9.1,5.37-12.42,9.39-3.32,4.01-5.85,8.8-7.59,14.36-1.74,5.56-2.61,11.6-2.61,18.13s.87,12.54,2.61,17.73c1.74,5.19,4.35,9.63,7.83,13.32,3.48,3.69,7.75,6.5,12.81,8.42,5.06,1.92,10.86,2.89,17.4,2.89,5.16,0,9.73-.56,13.68-1.68,3.96-1.12,7.43-2.78,10.44-4.97,3-2.19,5.43-4.84,7.27-7.94,1.84-3.1,3.29-6.63,4.35-10.59l-15.03-3.37c-.63,2.03-1.45,3.96-2.45,5.78ZM1992.05,860.46c3.42-2.41,7.41-3.61,11.94-3.61,4.22,0,7.91,1.04,11.07,3.13,3.16,2.09,5.59,5.21,7.28,9.39,1.06,2.63,1.61,5.73,1.75,9.21l-42.21.5c.47-2.91,1.19-5.6,2.18-8.03,1.9-4.65,4.56-8.18,7.99-10.59Z"/>
          <path class="cls-1" d="M2116.76,840.97c0,2.46.18,5.24.55,8.34.37,3.1.79,6.37,1.26,9.79.48,3.42.97,6.74,1.5,9.95h-3.16c-1.16-4.92-2.87-9.33-5.14-13.24-2.27-3.9-5.25-7.03-8.94-9.38-3.69-2.35-8.38-3.53-14.08-3.53-7.06,0-13.05,1.9-17.95,5.69-4.9,3.8-8.62,8.98-11.15,15.56-2.53,6.58-3.8,14.04-3.8,22.38,0,8.77,1.34,16.45,4.03,23.03,2.69,6.58,6.51,11.68,11.47,15.32,4.95,3.63,10.97,5.45,18.03,5.45,5.16,0,9.57-1.02,13.21-3.05,3.64-2.03,6.62-4.92,8.94-8.66,2.32-3.74,4.11-8.24,5.38-13.48h2.85l-.63,23.1h14.87v-41.07l.16-72.04h-17.39v25.83ZM2116.92,887.97c0,2.89-.5,5.96-1.5,9.22-1,3.27-2.43,6.26-4.27,8.98-1.85,2.73-4.22,4.97-7.12,6.74-2.9,1.76-6.25,2.65-10.04,2.65-4.22,0-7.86-1.17-10.91-3.53-3.06-2.35-5.38-5.69-6.96-10.02-1.58-4.33-2.37-9.39-2.37-15.16s.76-10.83,2.29-15.16c1.53-4.33,3.82-7.78,6.88-10.35,3.06-2.57,6.8-3.85,11.23-3.85,3.06,0,5.83.61,8.3,1.84,2.48,1.23,4.64,2.92,6.48,5.06,1.84,2.14,3.34,4.44,4.51,6.9,1.16,2.46,2.03,4.95,2.61,7.46.58,2.51.87,4.84.87,6.98v2.24Z"/>
          <polygon class="cls-1" points="2257.68 909.31 2256.89 909.31 2223.99 822.36 2197.58 822.36 2197.58 928.24 2213.87 928.24 2212.92 840 2214.18 840 2248.51 928.24 2264.32 928.24 2298.96 840 2300.23 840 2299.12 928.24 2315.41 928.24 2315.41 822.36 2290.1 822.36 2257.68 909.31"/>
          <path class="cls-1" d="M2394.73,907.55c-1,1.82-2.32,3.42-3.95,4.81-1.64,1.39-3.61,2.49-5.93,3.29-2.32.8-5.12,1.2-8.38,1.2-7.8,0-13.79-2.43-17.95-7.3-3.84-4.49-5.89-11.08-6.19-19.71l58.78-.59c.32-7.81-.32-14.63-1.9-20.46-1.58-5.83-3.93-10.67-7.04-14.52-3.11-3.85-6.96-6.74-11.55-8.66-4.59-1.92-9.78-2.89-15.58-2.89-6.12,0-11.65,1.12-16.61,3.37-4.96,2.25-9.1,5.37-12.42,9.39-3.32,4.01-5.85,8.8-7.59,14.36-1.74,5.56-2.61,11.6-2.61,18.13s.87,12.54,2.61,17.73c1.74,5.19,4.35,9.63,7.83,13.32,3.48,3.69,7.75,6.5,12.81,8.42,5.06,1.92,10.86,2.89,17.4,2.89,5.16,0,9.73-.56,13.68-1.68,3.96-1.12,7.44-2.78,10.44-4.97,3-2.19,5.43-4.84,7.27-7.94,1.84-3.1,3.29-6.63,4.35-10.59l-15.03-3.37c-.63,2.03-1.45,3.96-2.45,5.78ZM2363.09,860.46c3.42-2.41,7.41-3.61,11.94-3.61,4.22,0,7.91,1.04,11.07,3.13,3.16,2.09,5.59,5.21,7.28,9.39,1.06,2.63,1.61,5.73,1.75,9.21l-42.21.5c.47-2.91,1.19-5.6,2.18-8.03,1.9-4.65,4.56-8.18,7.99-10.59Z"/>
          <path class="cls-1" d="M2475.94,842.73c-5.27,0-9.7,1.04-13.29,3.13-3.59,2.09-6.56,5.19-8.94,9.3-2.37,4.12-4.35,9.17-5.93,15.16h-3c.42-2.46.79-4.95,1.11-7.46.32-2.51.63-5,.95-7.46.32-2.46.53-4.87.63-7.22.1-2.35.16-4.71.16-7.06v-25.99h-17.4v113.1h17.24v-38.98c.53-5.99,1.69-11.34,3.48-16.04,1.79-4.71,4.24-8.48,7.35-11.31,3.11-2.83,6.98-4.25,11.63-4.25,5.69,0,9.94,2.22,12.73,6.66,2.79,4.44,4.19,11.42,4.19,20.94v43h17.24v-45.4c0-13.26-2.35-23.26-7.04-30-4.69-6.74-11.73-10.11-21.11-10.11Z"/>
          <path class="cls-1" d="M2583.49,840.97c0,2.46.18,5.24.55,8.34.37,3.1.79,6.37,1.26,9.79.47,3.42.97,6.74,1.5,9.95h-3.16c-1.16-4.92-2.87-9.33-5.14-13.24-2.27-3.9-5.25-7.03-8.94-9.38-3.69-2.35-8.38-3.53-14.08-3.53-7.06,0-13.05,1.9-17.95,5.69-4.9,3.8-8.62,8.98-11.15,15.56-2.53,6.58-3.8,14.04-3.8,22.38,0,8.77,1.34,16.45,4.03,23.03,2.69,6.58,6.51,11.68,11.47,15.32,4.95,3.63,10.97,5.45,18.03,5.45,5.16,0,9.57-1.02,13.21-3.05,3.64-2.03,6.62-4.92,8.94-8.66,2.32-3.74,4.11-8.24,5.38-13.48h2.85l-.63,23.1h14.87v-41.07l.16-72.04h-17.4v25.83ZM2583.65,887.97c0,2.89-.5,5.96-1.5,9.22-1,3.27-2.43,6.26-4.27,8.98-1.85,2.73-4.22,4.97-7.12,6.74-2.9,1.76-6.25,2.65-10.04,2.65-4.22,0-7.86-1.17-10.91-3.53-3.06-2.35-5.38-5.69-6.96-10.02-1.58-4.33-2.37-9.39-2.37-15.16s.76-10.83,2.29-15.16c1.53-4.33,3.82-7.78,6.88-10.35,3.06-2.57,6.8-3.85,11.23-3.85,3.06,0,5.83.61,8.3,1.84,2.48,1.23,4.64,2.92,6.48,5.06,1.84,2.14,3.34,4.44,4.51,6.9,1.16,2.46,2.03,4.95,2.61,7.46.58,2.51.87,4.84.87,6.98v2.24Z"/>
          <rect class="cls-1" x="2624.29" y="844.82" width="17.24" height="83.42"/>
          <path class="cls-1" d="M2632.99,831.02c3.69,0,6.51-.78,8.46-2.33,1.95-1.55,2.93-3.82,2.93-6.82s-.98-5.43-2.93-6.98c-1.95-1.55-4.77-2.33-8.46-2.33s-6.48.8-8.38,2.4c-1.9,1.6-2.85,3.91-2.85,6.9s.95,5.14,2.85,6.74c1.9,1.61,4.69,2.41,8.38,2.41Z"/>
        </g>
      </g>
    </g>
  </g>
</svg>